<svg id="Group_43159" data-name="Group 43159" xmlns="http://www.w3.org/2000/svg" width="10" height="10" viewBox="0 0 10 10">
  <g id="Group_43027" data-name="Group 43027" transform="translate(0 0)">
    <path id="Line_4417" data-name="Line 4417" d="M-.346,8.5a1.15,1.15,0,0,1-.816-.338,1.154,1.154,0,0,1,0-1.632L6.53-1.162a1.154,1.154,0,0,1,1.632,0,1.154,1.154,0,0,1,0,1.632L.47,8.162A1.15,1.15,0,0,1-.346,8.5Z" transform="translate(1.5 1.5)" fill="#343434"/>
    <path id="Line_4418" data-name="Line 4418" d="M7.346,8.5a1.15,1.15,0,0,1-.816-.338L-1.162.47a1.154,1.154,0,0,1,0-1.632,1.154,1.154,0,0,1,1.632,0L8.162,6.53A1.154,1.154,0,0,1,7.346,8.5Z" transform="translate(1.5 1.5)" fill="#343434"/>
  </g>
</svg>
