<svg xmlns="http://www.w3.org/2000/svg" xmlns:xlink="http://www.w3.org/1999/xlink" width="674" height="606" viewBox="0 0 674 606">
  <defs>
    <clipPath id="clip-path">
      <rect id="Rectangle_16204" data-name="Rectangle 16204" width="596.007" height="568.026" fill="none" stroke="#7c94bf" stroke-width="1"/>
    </clipPath>
    <clipPath id="clip-path-2">
      <rect id="Rectangle_16204-2" data-name="Rectangle 16204" width="596.007" height="568.027" fill="none" stroke="#7c94bf" stroke-width="1"/>
    </clipPath>
    <clipPath id="clip-path-3">
      <path id="Path_34168" data-name="Path 34168" d="M35.809,555.715C9.9,593.247,65.678,628.353,62.226,672.2c-3.28,41.669,22.947,64.326,68.221,70.311,22.218,2.937,30.336,10.2,33.15,21.251,27.483-4.566,54.388-11.711,81.142-19.382,12.872-3.691,25.751-7.206,38.742-10.455,12.216-3.056,24.422-6.246,36.226-10.666,1.44-.567,2.868-1.159,4.29-1.766-6.668-24.307-5-56.229-46.535-52.928-42.253,3.358-68.74,29.045-88.158-30.83-14.543-44.844-68.086-105.21-113.016-105.217-15.06,0-29.145,6.777-40.479,23.194" transform="translate(-28.92 -532.521)" fill="#bfd6ff"/>
    </clipPath>
    <clipPath id="clip-path-4">
      <rect id="Rectangle_16275" data-name="Rectangle 16275" width="538.536" height="535.533" fill="none"/>
    </clipPath>
    <clipPath id="clip-path-5">
      <rect id="Rectangle_16274" data-name="Rectangle 16274" width="277.369" height="238.959" fill="none"/>
    </clipPath>
    <clipPath id="clip-path-6">
      <path id="Path_34173" data-name="Path 34173" d="M305.75,674.816c-2.352-5.3-12.493-7.5-28.289-6.249-42.253,3.358-68.74,29.045-88.158-30.83S80.956,490.316,35.809,555.714C9.9,593.247,65.678,628.352,62.226,672.2c-3.28,41.669,22.947,64.326,68.221,70.311,29.28,3.871,25.031,11.333,29.169,12.627,61.322,19.188,154.607-61.24,146.135-80.325" transform="translate(-28.92 -532.52)" fill="none"/>
    </clipPath>
    <clipPath id="clip-path-7">
      <path id="Path_34174" data-name="Path 34174" d="M829.9,1536.167c.465.308.932.615,1.393.928q-.587-1.175-1.148-2.375-.121.719-.245,1.448" transform="translate(-829.899 -1534.72)" fill="none"/>
    </clipPath>
    <linearGradient id="linear-gradient" x1="-58.098" y1="96.539" x2="-58.028" y2="96.539" gradientUnits="objectBoundingBox">
      <stop offset="0" stop-color="#aa80f9"/>
      <stop offset="0.996" stop-color="#6165d7"/>
      <stop offset="1" stop-color="#6165d7"/>
    </linearGradient>
    <clipPath id="clip-path-8">
      <path id="Path_34175" data-name="Path 34175" d="M1064.611,1575.13q.707.419,1.415.835c1.818,1.071,4.248,2.41-1.863-1.1.15.089.3.18.447.269" transform="translate(-1064.164 -1574.861)" fill="none"/>
    </clipPath>
    <linearGradient id="linear-gradient-2" x1="-32.573" y1="33.116" x2="-32.542" y2="33.116" xlink:href="#linear-gradient"/>
    <clipPath id="clip-path-9">
      <path id="Path_34176" data-name="Path 34176" d="M442.826,84.087c-39.276,26.653,1.293,84.255-14.118,127.287-4.607,12.864-5.431,24.731-3.141,35.565,5.149,24.359,26.211,35.052,52.415,55.745,50.372,39.779,51.775,69.163,67.239,66.124C567.3,364.469,579.4,304.365,570.9,255.193c-.666-3.854-11.588-10.565-11.524-38.579.116-50.554-34.15-143.025-85.895-143.037-9.649,0-19.9,3.21-30.652,10.51" transform="translate(-424.336 -73.577)" fill="#7c94bf"/>
    </clipPath>
    <clipPath id="clip-path-11">
      <rect id="Rectangle_16279" data-name="Rectangle 16279" width="308.185" height="334.246" fill="none"/>
    </clipPath>
    <clipPath id="clip-path-12">
      <path id="Path_34182" data-name="Path 34182" d="M550.375,252.373c.673-14.721,8.964-25.627,9-40.618.138-59.981-48.111-178.969-116.547-132.528-39.276,26.653,1.293,84.255-14.118,127.287-14.645,40.891,8.937,71.715,49.274,91.31,21.729,10.556,18.03,19.733,24.389,21.166,26.738,6.028,46.3-29.246,48-66.618" transform="translate(-424.336 -68.718)" fill="none"/>
    </clipPath>
    <clipPath id="clip-path-13">
      <path id="Path_34183" data-name="Path 34183" d="M311.877,461.209V759.687c0,10.332,9.689,18.35,21.591,17.912L688.41,764.522c10.266-.378,18.557-8.417,18.557-17.957V470.976c0-9.54-8.29-17.508-18.557-17.8L333.468,443.113q-.359-.01-.716-.01c-11.572,0-20.875,7.982-20.875,18.106" transform="translate(-311.877 -443.103)" fill="#d8dee8"/>
    </clipPath>
    <clipPath id="clip-path-14">
      <rect id="Rectangle_16283" data-name="Rectangle 16283" width="538.536" height="535.533" fill="#d8dee8"/>
    </clipPath>
    <clipPath id="clip-path-15">
      <rect id="Rectangle_16282" data-name="Rectangle 16282" width="382.266" height="322.606" fill="#d8dee8"/>
    </clipPath>
    <clipPath id="clip-path-16">
      <path id="Path_34185" data-name="Path 34185" d="M311.876,461.209v13.42l395.089,8.738V470.976c0-9.54-8.29-17.508-18.557-17.8L333.468,443.113q-.359-.01-.716-.01c-11.572,0-20.875,7.982-20.875,18.106" transform="translate(-311.876 -443.103)" fill="#394458"/>
    </clipPath>
    <clipPath id="clip-path-18">
      <rect id="Rectangle_16285" data-name="Rectangle 16285" width="363.534" height="334.512" fill="none"/>
    </clipPath>
    <clipPath id="clip-path-19">
      <path id="Path_34190" data-name="Path 34190" d="M905.982,820.115c-19.142,8.338-29.337,21.026-29.337,36.658l.465,79.095.037.29c2.395,18.537,13.34,37.413,32.39,55.984,15.013,14.635,31.7,25.814,42.993,32.584a22.733,22.733,0,0,0,12.373,3.2,23.547,23.547,0,0,0,12.293-3.891c11.08-7.307,27.212-19.1,41.489-33.982,17.8-18.554,27.869-36.9,30.058-54.652l.034-.278.424-75.576c0-14.9-9.349-27.474-27.168-36.419-14.99-7.525-35.243-12.041-57.13-12.674q-2.642-.076-5.257-.076c-20.187,0-39.107,3.4-53.664,9.737" transform="translate(-876.645 -810.378)" fill="#394458"/>
    </clipPath>
    <clipPath id="clip-path-20">
      <path id="Path_34191" data-name="Path 34191" d="M934.1,820.115c-18.889,8.338-28.95,21.026-28.95,36.658l.459,79.095.037.29c2.363,18.537,13.164,37.413,31.962,55.984,14.815,14.635,31.281,25.814,42.425,32.584a22.206,22.206,0,0,0,12.21,3.2,23.024,23.024,0,0,0,12.13-3.891c10.933-7.307,26.853-19.1,40.941-33.982,17.564-18.554,27.5-36.9,29.661-54.652l.034-.278.418-75.576c0-14.9-9.226-27.474-26.81-36.419-14.792-7.525-34.777-12.041-56.375-12.674q-2.607-.076-5.188-.076c-19.92,0-38.59,3.4-52.955,9.737" transform="translate(-905.152 -810.378)" fill="#bfd6ff"/>
    </clipPath>
    <clipPath id="clip-path-21">
      <path id="Path_34192" data-name="Path 34192" d="M932.175,877.109l.462,78.7c5.18,40.152,52.368,72.661,72.92,85.012a18.144,18.144,0,0,0,19.261-.518c20.123-13.241,64.726-46.577,69.492-85.181l.424-75.367c0-28.9-43.438-44.232-85.4-44.233-39.22,0-77.154,13.387-77.154,41.593" transform="translate(-932.175 -835.516)" fill="#7c94bf"/>
    </clipPath>
    <clipPath id="clip-path-22">
      <path id="Path_34193" data-name="Path 34193" d="M1030.22,919.8c-11.523,5.085-17.4,11.441-17.419,18.866l.452,77.392c2.038,13.826,10.928,28.547,26.343,43.689,14.271,14.017,30.674,24.751,39.136,29.875a2.8,2.8,0,0,0,1.523.4,2.907,2.907,0,0,0,1.522-.475c8.41-5.5,24.5-16.8,38.276-31.052,14.65-15.162,22.994-29.586,24.9-42.965l.421-74.712c-.017-7.169-5.511-13.526-16.379-18.919-12.286-6.1-30.02-9.864-48.737-10.309q-1.871-.045-3.732-.044c-17.56,0-34.289,2.948-46.3,8.251" transform="translate(-1012.801 -911.546)" fill="#394458"/>
    </clipPath>
    <clipPath id="clip-path-23">
      <path id="Path_34194" data-name="Path 34194" d="M1044.006,944.7c-9.575,4.239-14.455,9.109-14.469,14.419l.449,76.943c1.971,12.658,10.354,26.339,24.84,40.6,13.258,13.048,28.455,23.212,37,28.475,8.507-5.62,23.448-16.284,36.285-29.546,13.827-14.284,21.734-27.716,23.583-40l.421-74.438c-.012-5.178-4.6-10.068-13.657-14.551-11.661-5.77-28.63-9.325-46.633-9.729q-1.724-.039-3.437-.039c-16.926,0-32.969,2.815-44.383,7.869" transform="translate(-1029.537 -936.826)" fill="#088fd1"/>
    </clipPath>
    <clipPath id="clip-path-24">
      <rect id="Rectangle_16292" data-name="Rectangle 16292" width="538.536" height="535.533" fill="#a3e0ff"/>
    </clipPath>
    <clipPath id="clip-path-25">
      <path id="Path_34196" data-name="Path 34196" d="M1332.03,1359.419a7.611,7.611,0,0,0-7.125,6.952,6.93,6.93,0,0,0,3.71,6.55,2.57,2.57,0,0,1,1.29,2.743l-1.663,9.314a1.872,1.872,0,0,0,1.967,2.185l4.21-.148a2.026,2.026,0,0,0,1.964-2.311l-1.609-9.226a2.746,2.746,0,0,1,1.373-2.794,7.356,7.356,0,0,0,3.633-6.244,7.1,7.1,0,0,0-7.251-7.037q-.248,0-.5.016" transform="translate(-1324.893 -1359.403)" fill="#394458"/>
    </clipPath>
    <clipPath id="clip-path-27">
      <path id="Path_34198" data-name="Path 34198" d="M1513.931,166.759l.178.2c-.146-.092-.22-.162-.178-.2m22.3-5.971c-16.925-8.593-23.1-30.416-13.8-48.742S1553,85.83,1569.926,94.423s23.1,30.416,13.8,48.742c-6.75,13.3-19.8,21.1-32.913,21.1a32.06,32.06,0,0,1-14.58-3.475m6.121-87.022c.006.29.03.574.059.856a54.182,54.182,0,0,0-7.838,2.908c-.121-.248-.247-.494-.391-.733a9.082,9.082,0,0,0-13.228-2.509,10.725,10.725,0,0,0-3.249,14.053c.141.234.3.453.453.67a59.126,59.126,0,0,0-5.646,6.551c-.225-.141-.454-.28-.7-.4-4.662-2.367-10.518-.194-13.081,4.854s-.861,11.058,3.8,13.425c.242.123.488.226.735.324a59.107,59.107,0,0,0-1.957,8.424c-.267,0-.535.005-.807.029a10.725,10.725,0,0,0-9.428,10.916,9.082,9.082,0,0,0,9.832,9.2c.278-.025.551-.069.823-.117a54.187,54.187,0,0,0,2.277,8.044c-.245.143-.488.291-.726.458a10.725,10.725,0,0,0-3.249,14.053c2.625,4.357,11.029,6.491,15.753,3.928a48.305,48.305,0,0,0,4.046,3.57c-.15.246-.3.495-.429.756-2.563,5.048-.861,11.058,3.8,13.425s10.518.194,13.081-4.854c.132-.261.247-.527.357-.793a48.037,48.037,0,0,0,7.929,1.513c-.017.281-.03.562-.024.847a9.083,9.083,0,0,0,9.832,9.2,10.725,10.725,0,0,0,9.428-10.916c-.006-.29-.03-.574-.059-.856a54.171,54.171,0,0,0,7.838-2.909c.121.248.247.494.391.733a9.083,9.083,0,0,0,13.228,2.509,10.725,10.725,0,0,0,3.249-14.053c-.141-.234-.3-.453-.453-.669a59.128,59.128,0,0,0,5.646-6.551c.225.142.454.28.7.4,4.661,2.367,10.518.194,13.081-4.854s.861-11.058-3.8-13.425c-.241-.123-.488-.226-.735-.324a59.113,59.113,0,0,0,1.957-8.424c.267,0,.535-.005.808-.029a10.725,10.725,0,0,0,9.428-10.916,9.083,9.083,0,0,0-9.832-9.2c-.278.025-.551.069-.823.117a54.2,54.2,0,0,0-2.277-8.044c.245-.143.488-.291.726-.458a10.724,10.724,0,0,0,3.249-14.053,9.083,9.083,0,0,0-13.228-2.509c-.233.163-.452.34-.669.519a48.05,48.05,0,0,0-5.9-5.508c.15-.246.3-.495.429-.756,2.563-5.048,5.912-10.561,1.214-12.854-10.868-5.306-15.531-.764-18.094,4.284-.133.261-.247.527-.357.793a48.051,48.051,0,0,0-7.929-1.513c.017-.281.03-.562.024-.847-.111-5.554,1.537-8.56-3.8-8.664-.252,0-.5-.007-.745-.007-11.065,0-14.821,4.954-14.713,10.388" transform="translate(-1491.076 -63.378)" fill="#c3c3c3"/>
    </clipPath>
    <clipPath id="clip-path-28">
      <path id="Path_34199" data-name="Path 34199" d="M1781.481,140.808c13.5,9.894,17.8,29.392,9.361,46.015-7.152,14.086-21.369,22-35.25,21-.619,1.606-1.227,3.221-1.89,4.811-1.8,4.316-3.844,8.543-5.891,12.765q1.931.364,3.877.569c-.017.281-.03.562-.024.847.112,5.555,3.484,10.274,13.123,9.763,5.332-.283,6.248-5.925,6.137-11.48-.006-.29-.03-.574-.059-.856a54.158,54.158,0,0,0,7.838-2.909c.121.248.247.494.391.733,2.756,4.574,12.315,6.517,16.865,3.329s2.368-10.3-.388-14.873c-.141-.234-.3-.453-.453-.67a59.14,59.14,0,0,0,5.646-6.551c.225.142.454.28.7.4,4.661,2.367,10.518.193,13.081-4.854s.861-11.058-3.8-13.424c-.242-.123-.488-.226-.735-.324a59.179,59.179,0,0,0,1.957-8.424c.267,0,.535-.006.807-.03a10.725,10.725,0,0,0,9.428-10.916,9.083,9.083,0,0,0-9.832-9.2c-.278.025-.551.069-.823.117a54.183,54.183,0,0,0-2.277-8.044c.245-.143.488-.291.726-.458,4.55-3.188,10.179-10.89,6.969-15.157-6.093-8.1-12.4-4.592-16.948-1.4-.233.163-.453.34-.669.519a48.077,48.077,0,0,0-5.9-5.508c.15-.246.3-.495.429-.756a10.59,10.59,0,0,0,.6-8.351q-6.592,11.6-12.988,23.313" transform="translate(-1747.811 -117.495)" fill="#c3c3c3" stroke="rgba(0,0,0,0)" stroke-width="1"/>
    </clipPath>
    <clipPath id="clip-path-29">
      <path id="Path_34200" data-name="Path 34200" d="M1562.173,161.381c-16.925-8.593-23.1-30.416-13.8-48.742s30.568-26.216,47.493-17.623,23.1,30.416,13.8,48.742c-6.75,13.3-19.8,21.1-32.913,21.1a32.057,32.057,0,0,1-14.58-3.475m15.549-97.938a10.725,10.725,0,0,0-9.428,10.916c.006.29.03.574.059.856a54.233,54.233,0,0,0-7.838,2.909c-.121-.248-.247-.494-.391-.733a9.082,9.082,0,0,0-13.228-2.509,10.725,10.725,0,0,0-3.249,14.053c.141.234.3.453.453.67a59.061,59.061,0,0,0-5.646,6.551c-.225-.142-.454-.28-.7-.4-4.661-2.367-10.518-.194-13.081,4.854s-.861,11.058,3.8,13.425c.242.123.488.226.735.324a59.072,59.072,0,0,0-1.957,8.424c-.267,0-.536.005-.808.029a10.725,10.725,0,0,0-9.428,10.916,9.082,9.082,0,0,0,9.832,9.2c.278-.025.551-.068.822-.117a54.206,54.206,0,0,0,2.277,8.044c-.244.143-.488.291-.726.458a10.725,10.725,0,0,0-3.249,14.053,9.083,9.083,0,0,0,13.229,2.509c.233-.164.452-.34.669-.519a48.069,48.069,0,0,0,5.9,5.508c-.15.246-.3.495-.43.756-2.563,5.047-.861,11.058,3.8,13.425s10.518.194,13.08-4.854c.133-.262.247-.527.357-.793a48.078,48.078,0,0,0,7.929,1.513c-.017.281-.03.562-.024.846a9.083,9.083,0,0,0,9.832,9.2,10.725,10.725,0,0,0,9.428-10.916c-.006-.29-.03-.574-.059-.856a54.164,54.164,0,0,0,7.838-2.909c.121.248.248.494.391.733a9.082,9.082,0,0,0,13.228,2.509,10.725,10.725,0,0,0,3.25-14.053c-.141-.234-.3-.453-.453-.669a59.148,59.148,0,0,0,5.646-6.551c.225.141.454.279.7.4,4.662,2.367,10.518.193,13.081-4.854s.861-11.058-3.8-13.424c-.241-.123-.488-.226-.735-.324a59.071,59.071,0,0,0,1.957-8.424c.267,0,.535-.005.808-.03a10.725,10.725,0,0,0,9.428-10.916,9.083,9.083,0,0,0-9.832-9.2c-.278.025-.551.069-.823.117a54.176,54.176,0,0,0-2.277-8.044c.245-.143.488-.291.726-.458a10.725,10.725,0,0,0,3.249-14.053,9.082,9.082,0,0,0-13.228-2.509c-.233.163-.453.34-.669.519a48,48,0,0,0-5.9-5.508c.15-.246.3-.5.43-.756,2.563-5.047.861-11.058-3.8-13.425s-10.518-.194-13.081,4.854c-.133.261-.247.527-.357.793a48.058,48.058,0,0,0-7.929-1.514c.017-.281.03-.562.024-.846a9.107,9.107,0,0,0-9-9.236q-.411,0-.831.037" transform="translate(-1517.018 -63.406)" fill="#e8e8e8"/>
    </clipPath>
    <clipPath id="clip-path-30">
      <path id="Path_34201" data-name="Path 34201" d="M2111.008,637.718l.124.136c-.1-.064-.152-.112-.124-.136m15.469-4.142c-11.741-5.961-16.027-21.1-9.572-33.813s21.205-18.187,32.946-12.226,16.027,21.1,9.572,33.813c-4.683,9.223-13.734,14.636-22.832,14.637a22.237,22.237,0,0,1-10.115-2.411m4.246-60.368c0,.2.021.4.041.594a37.573,37.573,0,0,0-5.437,2.017c-.084-.172-.171-.343-.271-.508a6.3,6.3,0,0,0-9.177-1.74,7.44,7.44,0,0,0-2.254,9.749c.1.162.205.314.314.464a40.923,40.923,0,0,0-3.917,4.544c-.156-.1-.315-.194-.483-.279a7.133,7.133,0,0,0-6.438,12.68c.167.085.339.157.51.225a40.962,40.962,0,0,0-1.357,5.844c-.186,0-.372,0-.56.02a7.44,7.44,0,0,0-6.541,7.573,6.3,6.3,0,0,0,6.82,6.381c.193-.017.382-.048.571-.081a37.611,37.611,0,0,0,1.579,5.58c-.169.1-.338.2-.5.318a7.44,7.44,0,0,0-2.254,9.749c1.821,3.022,7.65,4.5,10.928,2.725a33.482,33.482,0,0,0,2.807,2.477c-.1.171-.206.343-.3.525a6.587,6.587,0,1,0,11.71,5.945c.092-.181.171-.366.248-.55a33.307,33.307,0,0,0,5.5,1.05c-.011.195-.021.39-.017.587a6.3,6.3,0,0,0,6.82,6.382,7.439,7.439,0,0,0,6.54-7.573c0-.2-.021-.4-.041-.594a37.592,37.592,0,0,0,5.437-2.018c.084.172.171.343.271.508a6.3,6.3,0,0,0,9.176,1.741,7.44,7.44,0,0,0,2.254-9.749c-.1-.162-.205-.315-.314-.464a41.047,41.047,0,0,0,3.916-4.544c.157.1.315.194.482.279a7.133,7.133,0,0,0,6.438-12.68c-.167-.085-.338-.157-.51-.225a41.021,41.021,0,0,0,1.357-5.844c.185,0,.371,0,.561-.02a7.44,7.44,0,0,0,6.54-7.573,6.3,6.3,0,0,0-6.82-6.382c-.193.017-.383.048-.571.081a37.6,37.6,0,0,0-1.58-5.58c.17-.1.339-.2.5-.318a7.439,7.439,0,0,0,2.254-9.749,6.3,6.3,0,0,0-9.177-1.74c-.162.113-.314.236-.464.36a33.324,33.324,0,0,0-4.094-3.821c.1-.171.206-.343.3-.525,1.778-3.5,4.1-7.326.842-8.917-7.539-3.68-10.774-.53-12.552,2.972-.092.181-.171.366-.248.55a33.328,33.328,0,0,0-5.5-1.05c.011-.195.02-.39.016-.587-.077-3.853,1.066-5.939-2.637-6.011-.174,0-.348-.005-.517-.005-7.676,0-10.282,3.437-10.206,7.207" transform="translate(-2095.152 -566.001)" fill="#c3c3c3" stroke="rgba(0,0,0,0)" stroke-width="1"/>
    </clipPath>
    <clipPath id="clip-path-31">
      <path id="Path_34202" data-name="Path 34202" d="M2296.61,619.716c9.367,6.864,12.349,20.39,6.494,31.921-4.961,9.772-14.824,15.259-24.453,14.572-.429,1.114-.851,2.234-1.311,3.337-1.248,2.994-2.666,5.926-4.087,8.855q1.34.252,2.689.395c-.011.195-.02.39-.016.587.077,3.853,2.417,7.127,9.1,6.773,3.7-.2,4.335-4.11,4.257-7.964,0-.2-.021-.4-.041-.594a37.639,37.639,0,0,0,5.437-2.018c.084.172.171.343.271.508,1.912,3.173,8.543,4.521,11.7,2.31s1.643-7.145-.269-10.318c-.1-.162-.205-.315-.314-.464a41,41,0,0,0,3.917-4.544c.156.1.315.194.482.279a7.133,7.133,0,0,0,6.438-12.68c-.167-.085-.339-.157-.51-.225a41.032,41.032,0,0,0,1.358-5.843c.185,0,.371,0,.56-.02a7.44,7.44,0,0,0,6.54-7.573,6.3,6.3,0,0,0-6.82-6.382c-.193.017-.382.048-.571.081a37.6,37.6,0,0,0-1.579-5.58c.17-.1.339-.2.5-.318,3.156-2.211,7.062-7.555,4.835-10.515-4.227-5.618-8.6-3.186-11.758-.974-.162.113-.313.236-.464.36a33.3,33.3,0,0,0-4.094-3.821c.1-.171.206-.343.3-.525a7.346,7.346,0,0,0,.414-5.793q-4.573,8.049-9.01,16.173" transform="translate(-2273.253 -603.543)" fill="#c3c3c3" stroke="rgba(0,0,0,0)" stroke-width="1"/>
    </clipPath>
    <clipPath id="clip-path-32">
      <path id="Path_34203" data-name="Path 34203" d="M2144.474,633.987c-11.741-5.961-16.026-21.1-9.572-33.813s21.205-18.187,32.947-12.226,16.026,21.1,9.572,33.813c-4.683,9.223-13.734,14.636-22.832,14.636a22.238,22.238,0,0,1-10.115-2.411m10.787-67.941a7.441,7.441,0,0,0-6.54,7.573c0,.2.021.4.041.594a37.6,37.6,0,0,0-5.437,2.018c-.084-.172-.171-.343-.271-.509a6.3,6.3,0,0,0-9.177-1.74,7.441,7.441,0,0,0-2.254,9.749c.1.162.2.314.314.464a40.96,40.96,0,0,0-3.917,4.544c-.157-.1-.315-.194-.483-.279a7.133,7.133,0,0,0-6.438,12.68c.168.085.339.157.51.225a41.067,41.067,0,0,0-1.358,5.844c-.185,0-.371,0-.56.02a7.44,7.44,0,0,0-6.54,7.573,6.3,6.3,0,0,0,6.82,6.382c.193-.017.382-.048.571-.081a37.563,37.563,0,0,0,1.58,5.581c-.17.1-.339.2-.5.317a7.44,7.44,0,0,0-2.254,9.749,6.3,6.3,0,0,0,9.177,1.74c.162-.113.314-.236.464-.36a33.326,33.326,0,0,0,4.094,3.821c-.1.171-.206.343-.3.525a6.587,6.587,0,1,0,11.71,5.945c.092-.181.172-.365.248-.55a33.343,33.343,0,0,0,5.5,1.05c-.012.195-.021.39-.017.587a6.3,6.3,0,0,0,6.82,6.382,7.44,7.44,0,0,0,6.541-7.572c0-.2-.021-.4-.041-.594a37.571,37.571,0,0,0,5.437-2.018c.084.172.172.343.271.508a6.3,6.3,0,0,0,9.176,1.74,7.44,7.44,0,0,0,2.254-9.749c-.1-.162-.205-.314-.314-.464a41.015,41.015,0,0,0,3.917-4.544c.156.1.315.194.483.279a7.133,7.133,0,0,0,6.438-12.68c-.167-.085-.338-.156-.51-.225a41.034,41.034,0,0,0,1.357-5.844c.186,0,.372,0,.56-.02a7.441,7.441,0,0,0,6.541-7.572,6.3,6.3,0,0,0-6.82-6.382c-.193.017-.382.048-.571.081a37.6,37.6,0,0,0-1.58-5.58c.17-.1.338-.2.5-.318a7.44,7.44,0,0,0,2.254-9.749,6.3,6.3,0,0,0-9.177-1.74c-.162.113-.314.236-.464.36a33.311,33.311,0,0,0-4.094-3.821c.1-.171.206-.343.3-.525a6.588,6.588,0,1,0-11.711-5.946c-.092.181-.172.366-.248.55a33.329,33.329,0,0,0-5.5-1.05c.011-.195.02-.39.017-.587a6.318,6.318,0,0,0-6.244-6.407q-.285,0-.576.026" transform="translate(-2113.149 -566.021)" fill="#e8e8e8"/>
    </clipPath>
  </defs>
  <g id="Group_47061" data-name="Group 47061" transform="translate(-18.152 -127.789)">
    <g id="Group_46919" data-name="Group 46919" transform="translate(18.152 165.763)" opacity="0.203">
      <g id="Group_46918" data-name="Group 46918" clip-path="url(#clip-path)">
        <path id="Path_34080" data-name="Path 34080" d="M451.742,568.526h-.009a418.444,418.444,0,0,1-67.829-5.509,377.636,377.636,0,0,1-66.849-17.273,317.1,317.1,0,0,1-62-30.163,277.917,277.917,0,0,1-27.976-20.268,255.956,255.956,0,0,1-68.138-87.031,266.628,266.628,0,0,1-22.921-73.053,270.091,270.091,0,0,1-1.22-78,273.7,273.7,0,0,1,22.277-77.958,279.424,279.424,0,0,1,21.936-39.466,286.062,286.062,0,0,1,27.067-34.458,310.873,310.873,0,0,1,65.81-54.1,347.443,347.443,0,0,1,75.191-34.716A354.135,354.135,0,0,1,385.875,6.3,336.517,336.517,0,0,1,424.242.761c9.836-.836,20.2-1.261,30.8-1.261,9.419,0,19.014.337,28.519,1,9.968.7,19.923,1.763,29.59,3.166a328.426,328.426,0,0,1,58.607,13.775c19.814,6.758,37.15,15.269,51.528,25.3a139.079,139.079,0,0,1,20.735,17.575A112.769,112.769,0,0,1,660.123,81.5c14.372,24.615,17.458,62.643,23.607,138.4.783,9.646,1.965,24.216,2.691,40.847.818,18.741.934,36.64.355,54.722-1.339,41.819-2.5,77.932-6.5,107.459-2.109,15.558-4.906,28.6-8.549,39.87-3.958,12.242-8.929,22.488-15.2,31.324-7.937,11.188-19.038,21.574-33,30.868-13.56,9.03-29.631,16.913-47.766,23.43a332.194,332.194,0,0,1-58.583,14.888A407.154,407.154,0,0,1,451.742,568.526ZM455.039.5c-10.571,0-20.9.423-30.713,1.257a335.508,335.508,0,0,0-38.252,5.526,353.149,353.149,0,0,0-38.688,10.2,346.445,346.445,0,0,0-74.975,34.616,309.874,309.874,0,0,0-65.6,53.928A285.054,285.054,0,0,0,179.84,140.36a278.426,278.426,0,0,0-21.857,39.324,272.7,272.7,0,0,0-22.2,77.673A269.088,269.088,0,0,0,137,335.069a265.628,265.628,0,0,0,22.835,72.779,254.956,254.956,0,0,0,67.874,86.694,276.914,276.914,0,0,0,27.875,20.195A316.1,316.1,0,0,0,317.395,544.8a376.632,376.632,0,0,0,66.671,17.226,417.436,417.436,0,0,0,67.667,5.5h.009a406.117,406.117,0,0,0,65.285-5.2,331.2,331.2,0,0,0,58.406-14.842c18.059-6.49,34.057-14.336,47.55-23.322,13.855-9.226,24.868-19.526,32.734-30.614,6.209-8.752,11.135-18.91,15.061-31.053,3.625-11.213,6.409-24.2,8.51-39.7,4-29.476,5.152-65.565,6.49-107.353.578-18.059.462-35.934-.355-54.649-.725-16.612-1.907-31.171-2.688-40.805C676.6,144.374,673.517,106.422,659.26,82a111.772,111.772,0,0,0-15.963-21,138.077,138.077,0,0,0-20.586-17.448c-14.3-9.973-31.553-18.441-51.278-25.169A327.426,327.426,0,0,0,513,4.659c-9.642-1.4-19.573-2.462-29.516-3.159C474.007.836,464.435.5,455.039.5Z" transform="translate(-106.037 0)" fill="#7c94bf"/>
      </g>
    </g>
    <g id="Group_47060" data-name="Group 47060" transform="translate(96.145 127.789)" opacity="0.203">
      <g id="Group_46918-2" data-name="Group 46918" clip-path="url(#clip-path-2)">
        <path id="Path_34080-2" data-name="Path 34080" d="M367.947,568.527a407.174,407.174,0,0,1-65.455-5.216,332.206,332.206,0,0,1-58.583-14.888c-18.135-6.517-34.206-14.4-47.766-23.43-13.957-9.294-25.058-19.679-33-30.868-6.268-8.836-11.239-19.082-15.2-31.324-3.644-11.27-6.44-24.312-8.55-39.87-4-29.527-5.159-65.64-6.5-107.455-.579-18.085-.463-35.985.355-54.725.726-16.63,1.908-31.2,2.691-40.843V219.9c6.149-75.761,9.235-113.788,23.607-138.4a112.773,112.773,0,0,1,16.105-21.185A139.088,139.088,0,0,1,196.4,42.739c14.377-10.026,31.714-18.537,51.528-25.3A328.423,328.423,0,0,1,306.531,3.67C316.2,2.266,326.154,1.2,336.121.5c9.505-.665,19.1-1,28.519-1,10.6,0,20.962.424,30.8,1.261A336.52,336.52,0,0,1,433.8,6.3a354.151,354.151,0,0,1,38.8,10.225,347.445,347.445,0,0,1,75.192,34.716,310.872,310.872,0,0,1,65.81,54.1,286.067,286.067,0,0,1,27.067,34.458,279.421,279.421,0,0,1,21.936,39.466,273.7,273.7,0,0,1,22.277,77.958,270.092,270.092,0,0,1-1.22,78,266.631,266.631,0,0,1-22.921,73.053,255.956,255.956,0,0,1-68.138,87.031,277.918,277.918,0,0,1-27.976,20.268,317.1,317.1,0,0,1-62,30.163,377.617,377.617,0,0,1-66.849,17.273A418.4,418.4,0,0,1,367.947,568.527ZM364.64.5c-9.4,0-18.967.337-28.449,1-9.943.7-19.874,1.759-29.516,3.159A327.424,327.424,0,0,0,248.247,18.39c-19.725,6.728-36.978,15.2-51.279,25.169a138.088,138.088,0,0,0-20.586,17.448A111.774,111.774,0,0,0,160.42,82c-14.257,24.419-17.337,62.371-23.474,137.981v.005c-.782,9.634-1.963,24.194-2.688,40.805-.817,18.715-.933,36.59-.355,54.646,1.338,41.792,2.493,77.881,6.49,107.357,2.1,15.5,4.885,28.484,8.51,39.7,3.926,12.144,8.853,22.3,15.061,31.053,7.866,11.088,18.879,21.388,32.734,30.614,13.493,8.985,29.491,16.831,47.55,23.321a331.2,331.2,0,0,0,58.406,14.842,406.174,406.174,0,0,0,65.294,5.2,417.4,417.4,0,0,0,67.667-5.495,376.623,376.623,0,0,0,66.671-17.227,316.1,316.1,0,0,0,61.809-30.068,276.923,276.923,0,0,0,27.875-20.2,254.96,254.96,0,0,0,67.874-86.694,265.627,265.627,0,0,0,22.835-72.78,269.089,269.089,0,0,0,1.216-77.712,272.7,272.7,0,0,0-22.2-77.674,278.429,278.429,0,0,0-21.857-39.324,285.055,285.055,0,0,0-26.972-34.337,309.871,309.871,0,0,0-65.6-53.928,346.445,346.445,0,0,0-74.975-34.616A353.1,353.1,0,0,0,433.6,7.282a335.491,335.491,0,0,0-38.252-5.526C385.545.923,375.211.5,364.64.5Z" transform="translate(-117.635 0)" fill="#7c94bf"/>
      </g>
    </g>
    <g id="Group_47191" data-name="Group 47191" transform="translate(15245.146 16462.877)">
      <g id="Group_47194" data-name="Group 47194" transform="translate(-15143.411 -16177.952)">
        <g id="Group_47193" data-name="Group 47193" clip-path="url(#clip-path-3)">
          <rect id="Rectangle_16273" data-name="Rectangle 16273" width="334.774" height="379.111" transform="translate(-101.533 196.619) rotate(-67.235)" fill="#bfd6ff"/>
        </g>
      </g>
      <g id="Group_47201" data-name="Group 47201" transform="translate(-15149 -16280.869)">
        <g id="Group_47200" data-name="Group 47200" clip-path="url(#clip-path-4)">
          <g id="Group_47199" data-name="Group 47199" transform="translate(5.589 89.513)" style="mix-blend-mode: soft-light;isolation: isolate">
            <g id="Group_47198" data-name="Group 47198">
              <g id="Group_47197" data-name="Group 47197" clip-path="url(#clip-path-5)">
                <g id="Group_47196" data-name="Group 47196" transform="translate(0 13.403)">
                  <g id="Group_47195" data-name="Group 47195" clip-path="url(#clip-path-6)">
                    <path id="Path_34169" data-name="Path 34169" d="M239.308,705.59a378.62,378.62,0,0,0,56.945,37.665l.931-.259c-81.62-43.571-148.014-118.452-188.219-216.2l-.886.364c29.491,71.7,74.869,133.4,131.229,178.428" transform="translate(-92.781 -527.904)" fill="#fcfdfe"/>
                    <path id="Path_34170" data-name="Path 34170" d="M1377.924,1267.448c-6.846-19-11.312-41.785-13.288-67.839l-.955.073c1.98,26.109,6.456,48.957,13.318,68.027l.924-.261" transform="translate(-1105.724 -1070.686)" fill="#fcfdfe"/>
                    <path id="Path_34171" data-name="Path 34171" d="M289.715,1375.956l.375-.881c-38.124-16.248-80.818-7.51-109.921,2.682l.317.9c28.943-10.135,71.387-18.833,109.229-2.7" transform="translate(-150.939 -1204.973)" fill="#fcfdfe"/>
                    <path id="Path_34172" data-name="Path 34172" d="M356.779,578.8l.86-.421c-20.523-41.933-11-90-3.49-114.925l-.917-.276c-7.546,25.056-17.12,73.4,3.547,115.622" transform="translate(-283.357 -476.575)" fill="#fcfdfe"/>
                  </g>
                </g>
              </g>
            </g>
          </g>
        </g>
      </g>
      <g id="Group_47203" data-name="Group 47203" transform="translate(-14988.612 -15984.266)">
        <g id="Group_47202" data-name="Group 47202" clip-path="url(#clip-path-7)">
          <rect id="Rectangle_16276" data-name="Rectangle 16276" width="2.749" height="2.475" transform="matrix(0.554, -0.833, 0.833, 0.554, -1.095, 1.646)" fill="url(#linear-gradient)"/>
        </g>
      </g>
      <g id="Group_47205" data-name="Group 47205" transform="translate(-14943.337 -15976.508)">
        <g id="Group_47204" data-name="Group 47204" clip-path="url(#clip-path-8)">
          <rect id="Rectangle_16277" data-name="Rectangle 16277" width="6.311" height="7.034" transform="translate(-1.621 2.436) rotate(-56.358)" fill="url(#linear-gradient-2)"/>
        </g>
      </g>
      <g id="Group_47207" data-name="Group 47207" transform="translate(-15066.992 -16266.648)">
        <g id="Group_47206" data-name="Group 47206" clip-path="url(#clip-path-9)">
          <rect id="Rectangle_16278" data-name="Rectangle 16278" width="345.735" height="311.636" transform="matrix(0.554, -0.833, 0.833, 0.554, -158.352, 206.727)" fill="#7c94bf"/>
        </g>
      </g>
      <g id="Group_47214" data-name="Group 47214" transform="translate(-15149 -16280.869)">
        <g id="Group_47213" data-name="Group 47213" clip-path="url(#clip-path-4)">
          <g id="Group_47212" data-name="Group 47212" transform="translate(73.861 4.501)" style="mix-blend-mode: soft-light;isolation: isolate">
            <g id="Group_47211" data-name="Group 47211">
              <g id="Group_47210" data-name="Group 47210" clip-path="url(#clip-path-11)">
                <g id="Group_47209" data-name="Group 47209" transform="translate(8.147 8.78)">
                  <g id="Group_47208" data-name="Group 47208" clip-path="url(#clip-path-12)">
                    <path id="Path_34177" data-name="Path 34177" d="M858.666,346.727c-.563-1.4,0-.831-.115-1.442C668.974,301.781,612.2,212.343,591.558,23.326c-.161.32-.979-.573-.7.557,6.612,75.7,26.587,155.585,70.221,216.56,45.874,64.1,125.577,87.727,197.588,106.283" transform="translate(-558.628 -32.069)" fill="#fcfdfe"/>
                    <path id="Path_34178" data-name="Path 34178" d="M787.294,1588.108c35.608-18.684,109.84-37.238,149.626-38.44.018-.337.035-.674.056-1.01-39.79,1.2-114.546,19.907-150.164,38.6.16.284.322.567.482.851" transform="translate(-716.759 -1262.642)" fill="#fcfdfe"/>
                    <path id="Path_34179" data-name="Path 34179" d="M1620.417,1116.855c.039-.683.2-.969.4-.855-22.422-14.555-32.8-32.636-41.863-59.178-6.646-19.462-9.429-48.347-7.565-70.332-.485-.48-.757-.489-.983-.008-1.7,22.076.778,51.064,7.6,70.607,9.346,26.789,19.63,45.072,42.412,59.766" transform="translate(-1348.501 -808.826)" fill="#fcfdfe"/>
                    <path id="Path_34180" data-name="Path 34180" d="M487.584,973.5c.187-.261.372-.522.558-.784-30.081-24.618-67.837-32.641-105.962-31.092.026.335.059.67.084,1,37.877-1.539,75.432,6.416,105.32,30.871" transform="translate(-390.327 -772.777)" fill="#fcfdfe"/>
                    <path id="Path_34181" data-name="Path 34181" d="M702.015,168.94c.314-.047.628-.093.943-.138-3.891-40.338,11.474-79.76,34.543-112.273-.261-.189-.523-.377-.782-.569-23.2,32.694-38.664,72.415-34.7,112.979" transform="translate(-647.851 -58.426)" fill="#fcfdfe"/>
                  </g>
                </g>
              </g>
            </g>
          </g>
        </g>
      </g>
      <g id="Group_47216" data-name="Group 47216" transform="translate(-15088.727 -16195.234)">
        <g id="Group_47215" data-name="Group 47215" clip-path="url(#clip-path-13)">
          <rect id="Rectangle_16281" data-name="Rectangle 16281" width="476.264" height="503.166" transform="matrix(0.447, -0.894, 0.894, 0.447, -133.974, 267.947)" fill="#d8dee8"/>
        </g>
      </g>
      <g id="Group_47221" data-name="Group 47221" transform="translate(-15149 -16280.869)">
        <g id="Group_47220" data-name="Group 47220" clip-path="url(#clip-path-14)">
          <g id="Group_47219" data-name="Group 47219" transform="translate(67.188 91.587)" opacity="0.74" style="mix-blend-mode: soft-light;isolation: isolate">
            <g id="Group_47218" data-name="Group 47218">
              <g id="Group_47217" data-name="Group 47217" clip-path="url(#clip-path-15)">
                <path id="Path_34184" data-name="Path 34184" d="M362.329,796.5c-8.1.289-14.678-5.17-14.678-12.194V486.226c0-7.023,6.582-12.538,14.678-12.318L717.27,483.56c6.993.19,12.647,5.615,12.647,12.116V771.608c0,6.5-5.654,11.974-12.647,12.223Z" transform="translate(-347.651 -473.902)" fill="#d8dee8"/>
              </g>
            </g>
          </g>
        </g>
      </g>
      <g id="Group_47223" data-name="Group 47223" transform="translate(-15088.727 -16195.234)">
        <g id="Group_47222" data-name="Group 47222" clip-path="url(#clip-path-16)">
          <rect id="Rectangle_16284" data-name="Rectangle 16284" width="393.058" height="134.884" transform="translate(-9.474 2.369) rotate(-14.036)" fill="#394458"/>
        </g>
      </g>
      <g id="Group_47228" data-name="Group 47228" transform="translate(-15149 -16280.869)">
        <g id="Group_47227" data-name="Group 47227" clip-path="url(#clip-path-4)">
          <path id="Path_34186" data-name="Path 34186" d="M455.024,506.408a6.079,6.079,0,0,1-6.45,5.91,6.492,6.492,0,0,1-6.468-6.261,6.079,6.079,0,0,1,6.468-5.909,6.491,6.491,0,0,1,6.45,6.261" transform="translate(-356.663 -403.485)" fill="#fff"/>
          <path id="Path_34187" data-name="Path 34187" d="M572.044,509.707a6.034,6.034,0,0,1-6.389,5.883,6.444,6.444,0,0,1-6.407-6.231,6.034,6.034,0,0,1,6.407-5.882,6.443,6.443,0,0,1,6.389,6.23" transform="translate(-451.167 -406.172)" fill="#fff"/>
          <path id="Path_34188" data-name="Path 34188" d="M687.952,512.975a5.989,5.989,0,0,1-6.328,5.855,6.4,6.4,0,0,1-6.345-6.2,5.99,5.99,0,0,1,6.345-5.855,6.4,6.4,0,0,1,6.328,6.2" transform="translate(-544.772 -408.832)" fill="#fff"/>
          <g id="Group_47226" data-name="Group 47226" transform="translate(60.274 85.635)" opacity="0.5" style="mix-blend-mode: soft-light;isolation: isolate">
            <g id="Group_47225" data-name="Group 47225">
              <g id="Group_47224" data-name="Group 47224" clip-path="url(#clip-path-18)">
                <path id="Path_34189" data-name="Path 34189" d="M550.441,567.915c-41.457-52.047-113.213-35.487-158.606-92.994a119.746,119.746,0,0,1-17.551-30.656l-40.816-1.157c-11.9-.337-21.592,7.763-21.592,18.1V759.681c0,10.332,9.689,18.351,21.592,17.912L675.409,765c-7.833-9.747-76.06-45.852-93.684-101.286-16.118-50.7-6.272-64.393-31.284-95.795" transform="translate(-311.876 -443.098)" fill="#fff"/>
              </g>
            </g>
          </g>
        </g>
      </g>
      <g id="Group_47230" data-name="Group 47230" transform="translate(-14979.578 -16124.253)">
        <g id="Group_47229" data-name="Group 47229" clip-path="url(#clip-path-19)">
          <rect id="Rectangle_16287" data-name="Rectangle 16287" width="275.25" height="276.513" transform="matrix(0.721, -0.693, 0.693, 0.721, -108.752, 104.529)" fill="#394458"/>
        </g>
      </g>
      <g id="Group_47232" data-name="Group 47232" transform="translate(-14974.068 -16124.253)">
        <g id="Group_47231" data-name="Group 47231" clip-path="url(#clip-path-20)">
          <rect id="Rectangle_16288" data-name="Rectangle 16288" width="258.822" height="274.536" transform="matrix(0.853, -0.522, 0.522, 0.853, -96.875, 59.23)" fill="#bfd6ff"/>
        </g>
      </g>
      <g id="Group_47234" data-name="Group 47234" transform="translate(-14968.847 -16119.395)">
        <g id="Group_47233" data-name="Group 47233" clip-path="url(#clip-path-21)">
          <rect id="Rectangle_16289" data-name="Rectangle 16289" width="238.546" height="259.377" transform="translate(-83.266 41.409) rotate(-26.442)" fill="#7c94bf"/>
        </g>
      </g>
      <g id="Group_47236" data-name="Group 47236" transform="translate(-14953.264 -16104.701)">
        <g id="Group_47235" data-name="Group 47235" clip-path="url(#clip-path-22)">
          <rect id="Rectangle_16290" data-name="Rectangle 16290" width="181.095" height="210.638" transform="translate(-52.296 16.928) rotate(-17.937)" fill="#394458"/>
        </g>
      </g>
      <g id="Group_47238" data-name="Group 47238" transform="translate(-14950.03 -16099.815)">
        <g id="Group_47237" data-name="Group 47237" clip-path="url(#clip-path-23)">
          <rect id="Rectangle_16291" data-name="Rectangle 16291" width="204.155" height="181.768" transform="matrix(0.419, -0.908, 0.908, 0.419, -63.976, 138.816)" fill="#088fd1"/>
        </g>
      </g>
      <g id="Group_47240" data-name="Group 47240" transform="translate(-15149 -16280.869)">
        <g id="Group_47239" data-name="Group 47239" clip-path="url(#clip-path-24)">
          <path id="Path_34195" data-name="Path 34195" d="M1236.332,1286.414l-57.547.512a7.928,7.928,0,0,0-8.028,7.7V1331.5a7.431,7.431,0,0,0,8,7.253l57.344-2.348a7.722,7.722,0,0,0,7.407-7.545l.182-35.223a7.213,7.213,0,0,0-7.357-7.221" transform="translate(-944.494 -1037.798)" fill="#a3e0ff"/>
        </g>
      </g>
      <g id="Group_47242" data-name="Group 47242" transform="translate(-14892.948 -16018.147)">
        <g id="Group_47241" data-name="Group 47241" clip-path="url(#clip-path-25)">
          <rect id="Rectangle_16293" data-name="Rectangle 16293" width="30.985" height="22.506" transform="translate(-7.908 25.439) rotate(-73.045)" fill="#394458"/>
        </g>
      </g>
      <g id="Group_47244" data-name="Group 47244" transform="translate(-15149 -16280.869)">
        <g id="Group_47243" data-name="Group 47243" clip-path="url(#clip-path-24)">
          <path id="Path_34197" data-name="Path 34197" d="M1258.723,1132.218a3.07,3.07,0,0,1-3.118-3.067l.035-8.031a14.923,14.923,0,0,0-14.945-14.785l-18.784-.186c-8.6-.086-15.674,6.622-15.682,14.944l-.007,8.285a3.3,3.3,0,0,1-3.349,3.207,3.255,3.255,0,0,1-3.359-3.176l0-8.32c0-11.893,10.133-21.444,22.406-21.273l18.792.261c11.805.164,21.236,9.613,21.18,21.047l-.038,8a3.14,3.14,0,0,1-3.134,3.1" transform="translate(-967.694 -887.259)" fill="#a3e0ff"/>
        </g>
      </g>
      <g id="Group_47246" data-name="Group 47246" transform="translate(-14860.831 -16268.62)">
        <g id="Group_47245" data-name="Group 47245" clip-path="url(#clip-path-27)">
          <rect id="Rectangle_16295" data-name="Rectangle 16295" width="124.224" height="129.457" transform="translate(-0.109 0)" fill="#c3c3c3"/>
        </g>
      </g>
      <g id="Group_47248" data-name="Group 47248" transform="translate(-14811.215 -16258.161)">
        <g id="Group_47247" data-name="Group 47247" clip-path="url(#clip-path-28)">
          <rect id="Rectangle_16296" data-name="Rectangle 16296" width="74.498" height="119.599" transform="translate(0 0)" fill="#c3c3c3" stroke="rgba(0,0,0,0)" stroke-width="1"/>
        </g>
      </g>
      <g id="Group_47250" data-name="Group 47250" transform="translate(-14855.818 -16268.614)">
        <g id="Group_47249" data-name="Group 47249" clip-path="url(#clip-path-29)">
          <rect id="Rectangle_16297" data-name="Rectangle 16297" width="174.253" height="172.048" transform="matrix(0.491, -0.871, 0.871, 0.491, -55.709, 98.701)" fill="#e8e8e8"/>
        </g>
      </g>
      <g id="Group_47252" data-name="Group 47252" transform="translate(-14744.087 -16171.482)">
        <g id="Group_47251" data-name="Group 47251" clip-path="url(#clip-path-30)">
          <rect id="Rectangle_16298" data-name="Rectangle 16298" width="86.176" height="89.806" transform="translate(-0.076 0)" fill="#c3c3c3" stroke="rgba(0,0,0,0)" stroke-width="1"/>
        </g>
      </g>
      <g id="Group_47254" data-name="Group 47254" transform="translate(-14709.668 -16164.228)">
        <g id="Group_47253" data-name="Group 47253" clip-path="url(#clip-path-31)">
          <rect id="Rectangle_16299" data-name="Rectangle 16299" width="51.68" height="82.967" transform="translate(0 0)" fill="#c3c3c3" stroke="rgba(0,0,0,0)" stroke-width="1"/>
        </g>
      </g>
      <g id="Group_47256" data-name="Group 47256" transform="translate(-14740.609 -16171.478)">
        <g id="Group_47255" data-name="Group 47255" clip-path="url(#clip-path-32)">
          <rect id="Rectangle_16300" data-name="Rectangle 16300" width="120.882" height="119.352" transform="translate(-38.646 68.47) rotate(-60.607)" fill="#e8e8e8"/>
        </g>
      </g>
      <rect id="Rectangle_16301" data-name="Rectangle 16301" width="513.666" height="443.939" transform="translate(-15149 -16280.868)" fill="none"/>
    </g>
  </g>
</svg>
