<svg xmlns="http://www.w3.org/2000/svg" xmlns:xlink="http://www.w3.org/1999/xlink" width="600" height="529.559" viewBox="0 0 600 529.559">
  <defs>
    <clipPath id="clip-path">
      <rect id="Rectangle_16262" data-name="Rectangle 16262" width="529.559" height="600" transform="translate(0 0)" fill="none"/>
    </clipPath>
    <clipPath id="clip-path-2">
      <rect id="Rectangle_16204" data-name="Rectangle 16204" width="424.672" height="404.735" fill="none" stroke="#7c94bf" stroke-width="1"/>
    </clipPath>
    <clipPath id="clip-path-3">
      <rect id="Rectangle_16204-2" data-name="Rectangle 16204" width="424.672" height="404.736" fill="none" stroke="#7c94bf" stroke-width="1"/>
    </clipPath>
  </defs>
  <g id="Group_47062" data-name="Group 47062" transform="translate(600.004) rotate(90)">
    <g id="Group_47062-2" data-name="Group 47062" transform="translate(0 0.004)" clip-path="url(#clip-path)">
      <path id="Path_34143" data-name="Path 34143" d="M563.846,392.954c0,107.2-86.906,194.11-194.11,194.11s-194.11-86.906-194.11-194.11,86.906-194.11,194.11-194.11,194.11,86.906,194.11,194.11" transform="translate(-125.121 -141.663)" fill="#f2f7ff"/>
      <g id="Group_47063" data-name="Group 47063" transform="translate(17204.883 -14316.878) rotate(-90)">
        <g id="Group_46919" data-name="Group 46919" transform="translate(-14810 -17140.943)" opacity="0.203">
          <g id="Group_46918" data-name="Group 46918" clip-path="url(#clip-path-2)">
            <path id="Path_34080" data-name="Path 34080" d="M359.981,404.947h-.006a298.152,298.152,0,0,1-48.33-3.925,269.074,269.074,0,0,1-47.632-12.307,225.939,225.939,0,0,1-44.18-21.492A198.02,198.02,0,0,1,199.9,352.781a182.376,182.376,0,0,1-48.55-62.012,189.98,189.98,0,0,1-16.332-52.052,192.448,192.448,0,0,1-.869-55.578,195.017,195.017,0,0,1,15.873-55.547,199.1,199.1,0,0,1,15.63-28.12,203.829,203.829,0,0,1,19.286-24.552,221.506,221.506,0,0,1,46.892-38.55A247.564,247.564,0,0,1,285.4,11.633a252.332,252.332,0,0,1,27.645-7.286A239.778,239.778,0,0,1,340.386.4c7.009-.6,14.392-.9,21.944-.9,6.711,0,13.548.24,20.32.715,7.1.5,14.2,1.256,21.084,2.256a234.013,234.013,0,0,1,41.759,9.815,147.249,147.249,0,0,1,36.715,18.024,99.1,99.1,0,0,1,14.774,12.523,80.352,80.352,0,0,1,11.475,15.095c10.24,17.539,12.439,44.635,16.821,98.617.558,6.873,1.4,17.255,1.917,29.1.583,13.353.666,26.107.253,38.991-.954,29.8-1.778,55.529-4.63,76.567a164.1,164.1,0,0,1-6.092,28.408A81.069,81.069,0,0,1,505.9,351.934c-5.655,7.972-13.565,15.372-23.51,21.994a157.718,157.718,0,0,1-34.035,16.695,236.7,236.7,0,0,1-41.742,10.608A290.106,290.106,0,0,1,359.981,404.947ZM362.331.212c-7.532,0-14.9.3-21.884.9a239.059,239.059,0,0,0-27.255,3.937,251.628,251.628,0,0,0-27.566,7.265A246.852,246.852,0,0,0,232.2,36.975,220.794,220.794,0,0,0,185.462,75.4a203.109,203.109,0,0,0-19.219,24.466,198.386,198.386,0,0,0-15.574,28.02,194.307,194.307,0,0,0-15.815,55.345,191.733,191.733,0,0,0,.866,55.372,189.268,189.268,0,0,0,16.271,51.857,181.664,181.664,0,0,0,48.362,61.772,197.306,197.306,0,0,0,19.862,14.389,225.228,225.228,0,0,0,44.04,21.424,268.362,268.362,0,0,0,47.505,12.274,297.437,297.437,0,0,0,48.215,3.916h.006a289.372,289.372,0,0,0,46.517-3.707,235.987,235.987,0,0,0,41.616-10.575,157.006,157.006,0,0,0,33.881-16.617c9.872-6.574,17.719-13.913,23.324-21.813A80.37,80.37,0,0,0,516.05,329.4a163.388,163.388,0,0,0,6.064-28.285c2.847-21,3.671-46.717,4.624-76.492.412-12.868.329-25.6-.253-38.939-.517-11.837-1.358-22.21-1.916-29.075C520.2,102.727,518,75.685,507.843,58.286a79.641,79.641,0,0,0-11.374-14.96A98.385,98.385,0,0,0,481.8,30.893,146.543,146.543,0,0,0,445.264,12.96a233.3,233.3,0,0,0-41.631-9.784c-6.87-1-13.946-1.755-21.031-2.251C375.845.452,369.025.212,362.331.212Z" transform="translate(-113.657 0.144)" fill="#7c94bf"/>
          </g>
        </g>
        <g id="Group_47060" data-name="Group 47060" transform="translate(-14754.428 -17168)" opacity="0.203">
          <g id="Group_46918-2" data-name="Group 46918" clip-path="url(#clip-path-3)">
            <path id="Path_34080-2" data-name="Path 34080" d="M300.274,404.948a290.124,290.124,0,0,1-46.639-3.717,236.708,236.708,0,0,1-41.742-10.608,157.721,157.721,0,0,1-34.035-16.694c-9.945-6.622-17.855-14.022-23.51-21.994a81.069,81.069,0,0,1-10.828-22.319,164.092,164.092,0,0,1-6.092-28.408c-2.852-21.039-3.676-46.77-4.63-76.565-.413-12.886-.33-25.64.253-38.993.517-11.849,1.36-22.231,1.917-29.1v0c4.381-53.982,6.58-81.077,16.821-98.617a80.354,80.354,0,0,1,11.475-15.095A99.1,99.1,0,0,1,178.04,30.309a147.253,147.253,0,0,1,36.715-18.024,234.011,234.011,0,0,1,41.759-9.815C263.4,1.471,270.5.712,277.6.215,284.37-.259,291.207-.5,297.918-.5c7.553,0,14.936.3,21.944.9A239.778,239.778,0,0,1,347.2,4.347a252.341,252.341,0,0,1,27.645,7.286A247.566,247.566,0,0,1,428.421,36.37a221.505,221.505,0,0,1,46.892,38.55A203.826,203.826,0,0,1,494.6,99.472a199.1,199.1,0,0,1,15.63,28.12A195.021,195.021,0,0,1,526.1,183.139a192.449,192.449,0,0,1-.869,55.578A189.984,189.984,0,0,1,508.9,290.769a182.377,182.377,0,0,1-48.55,62.012,198.027,198.027,0,0,1-19.934,14.442,225.943,225.943,0,0,1-44.18,21.492A269.065,269.065,0,0,1,348.6,401.023,298.122,298.122,0,0,1,300.274,404.948ZM297.918.212c-6.694,0-13.515.24-20.271.713-7.085.5-14.161,1.253-21.031,2.251a233.3,233.3,0,0,0-41.631,9.784,146.544,146.544,0,0,0-36.537,17.934A98.391,98.391,0,0,0,163.78,43.325a79.642,79.642,0,0,0-11.374,14.96c-10.159,17.4-12.353,44.441-16.726,98.315v0c-.557,6.865-1.4,17.239-1.915,29.075-.582,13.335-.665,26.072-.253,38.937.953,29.778,1.777,55.492,4.624,76.495A163.4,163.4,0,0,0,144.2,329.4a80.369,80.369,0,0,0,10.732,22.126c5.6,7.9,13.452,15.24,23.324,21.813a157.007,157.007,0,0,0,33.881,16.617,235.994,235.994,0,0,0,41.616,10.575,289.412,289.412,0,0,0,46.524,3.707,297.408,297.408,0,0,0,48.214-3.915,268.358,268.358,0,0,0,47.505-12.274,225.232,225.232,0,0,0,44.04-21.424,197.325,197.325,0,0,0,19.862-14.39,181.665,181.665,0,0,0,48.362-61.772A189.269,189.269,0,0,0,524.529,238.6a191.734,191.734,0,0,0,.866-55.372,194.308,194.308,0,0,0-15.815-55.345,198.387,198.387,0,0,0-15.574-28.02A203.116,203.116,0,0,0,474.787,75.4a220.792,220.792,0,0,0-46.741-38.425A246.852,246.852,0,0,0,374.624,12.31a251.6,251.6,0,0,0-27.566-7.265A239.047,239.047,0,0,0,319.8,1.108C312.814.514,305.451.212,297.918.212Z" transform="translate(-121.92 0.144)" fill="#7c94bf"/>
          </g>
        </g>
      </g>
      <path id="Path_34144" data-name="Path 34144" d="M249.445,1182.163v116.519a36.527,36.527,0,0,1-36.527,36.527H36.525a27.154,27.154,0,0,0-27.154,27.154v75.16a4.686,4.686,0,1,1-9.371,0v-75.16a36.525,36.525,0,0,1,36.525-36.525H212.92a27.152,27.152,0,0,0,27.152-27.152V1182.163Z" transform="translate(0 -842.209)" fill="#a3e0ff"/>
      <path id="Path_34145" data-name="Path 34145" d="M828.628,1269.618v18.673a8.073,8.073,0,0,1-8.072,8.072H806.241a8.05,8.05,0,0,1-6.141-2.835v0a8.035,8.035,0,0,1-1.928-5.235v-18.673Z" transform="translate(-568.641 -904.515)" fill="#7c94bf"/>
      <path id="Path_34146" data-name="Path 34146" d="M805.122,1118.255v37.3a10.431,10.431,0,0,1-10.432,10.43H753.274a10.43,10.43,0,0,1-10.43-10.43v-37.3Z" transform="translate(-529.224 -796.679)" fill="#bfd6ff"/>
      <path id="Path_34147" data-name="Path 34147" d="M726.555,1089.7h69.694a1.369,1.369,0,0,1,1.369,1.369v5.473a1.369,1.369,0,0,1-1.369,1.369H726.555a1.369,1.369,0,0,1-1.369-1.369v-5.473a1.369,1.369,0,0,1,1.369-1.369" transform="translate(-516.644 -776.335)" fill="#7c94bf"/>
      <path id="Path_34148" data-name="Path 34148" d="M792.33,1013.664H781.716V988.28a5.307,5.307,0,1,1,10.614,0Z" transform="translate(-556.918 -700.3)" fill="#394458"/>
      <path id="Path_34149" data-name="Path 34149" d="M894.238,1013.664H883.624V988.28a5.307,5.307,0,0,1,10.614,0Z" transform="translate(-629.52 -700.3)" fill="#394458"/>
      <path id="Path_34150" data-name="Path 34150" d="M805.122,1118.255v37.3a10.431,10.431,0,0,1-10.432,10.43H753.274a10.43,10.43,0,0,1-10.43-10.43c44.72-3.107,48.828-37.3,48.828-37.3Z" transform="translate(-529.224 -796.679)" fill="#7c94bf"/>
      <rect id="Rectangle_16256" data-name="Rectangle 16256" width="62.278" height="3.008" transform="translate(213.62 321.576)" fill="#a1bae5"/>
      <path id="Path_34151" data-name="Path 34151" d="M861.535,1173.077v21.534a10.431,10.431,0,0,1-10.432,10.43H822.029c29.36,0,39.506-31.964,39.506-31.964" transform="translate(-585.638 -835.736)" fill="#65799d"/>
      <rect id="Rectangle_16257" data-name="Rectangle 16257" width="30.456" height="1.949" transform="translate(229.53 369.305)" fill="#65799d"/>
      <rect id="Rectangle_16258" data-name="Rectangle 16258" width="10.614" height="3.716" transform="translate(224.798 309.648)" fill="#191e26"/>
      <rect id="Rectangle_16259" data-name="Rectangle 16259" width="10.614" height="3.716" transform="translate(254.104 309.648)" fill="#191e26"/>
      <path id="Path_34152" data-name="Path 34152" d="M833.405,1284.227V1298.7a8.073,8.073,0,0,1-8.072,8.072H811.018a8.051,8.051,0,0,1-6.141-2.835v0c22.312,2.737,25.719-19.707,25.719-19.707Z" transform="translate(-573.418 -914.923)" fill="#65799d"/>
      <path id="Path_34153" data-name="Path 34153" d="M1124.319,4.69h0a4.686,4.686,0,0,1-4.686,4.686H871.36A27.155,27.155,0,0,0,844.2,36.531V159.666h-9.372V36.531A36.526,36.526,0,0,1,871.36,0h248.272a4.686,4.686,0,0,1,4.686,4.686" transform="translate(-594.76 -0.004)" fill="#a3e0ff"/>
      <path id="Path_34154" data-name="Path 34154" d="M828.628,452.289V433.616a8.073,8.073,0,0,0-8.072-8.072H806.241a8.05,8.05,0,0,0-6.141,2.835v0a8.035,8.035,0,0,0-1.928,5.235v18.673Z" transform="translate(-568.641 -303.171)" fill="#7c94bf"/>
      <path id="Path_34155" data-name="Path 34155" d="M805.122,551.667v-37.3a10.431,10.431,0,0,0-10.432-10.43H753.274a10.43,10.43,0,0,0-10.43,10.43v37.3Z" transform="translate(-529.224 -359.022)" fill="#bfd6ff"/>
      <path id="Path_34156" data-name="Path 34156" d="M726.555,678.123h69.694a1.369,1.369,0,0,0,1.369-1.369V671.28a1.369,1.369,0,0,0-1.369-1.369H726.555a1.369,1.369,0,0,0-1.369,1.369v5.473a1.369,1.369,0,0,0,1.369,1.369" transform="translate(-516.644 -477.266)" fill="#7c94bf"/>
      <path id="Path_34157" data-name="Path 34157" d="M805.122,551.667v-37.3a10.431,10.431,0,0,0-10.432-10.43H753.274a10.43,10.43,0,0,0-10.43,10.43c44.72,3.107,48.828,37.3,48.828,37.3Z" transform="translate(-529.224 -359.022)" fill="#7c94bf"/>
      <rect id="Rectangle_16260" data-name="Rectangle 16260" width="62.278" height="3.008" transform="translate(213.62 189.638)" fill="#a1bae5"/>
      <path id="Path_34158" data-name="Path 34158" d="M861.535,535.9V514.369a10.431,10.431,0,0,0-10.432-10.43H822.029c29.36,0,39.506,31.964,39.506,31.964" transform="translate(-585.638 -359.022)" fill="#65799d"/>
      <rect id="Rectangle_16261" data-name="Rectangle 16261" width="30.456" height="1.949" transform="translate(229.53 142.967)" fill="#65799d"/>
      <path id="Path_34159" data-name="Path 34159" d="M833.405,448.088V433.616a8.073,8.073,0,0,0-8.072-8.072H811.018a8.05,8.05,0,0,0-6.141,2.835v0c22.312-2.737,25.719,19.706,25.719,19.706Z" transform="translate(-573.418 -303.171)" fill="#65799d"/>
      <g id="Group_47066" data-name="Group 47066" transform="translate(-6.098)">
        <g id="Group_47064" data-name="Group 47064" transform="translate(-88.93 222.739) rotate(-45)">
          <path id="Path_34160" data-name="Path 34160" d="M512.714,798.569H493.431a2.655,2.655,0,1,1,0-5.309h19.284a2.655,2.655,0,0,1,0,5.309" transform="translate(-349.643 -565.143)" fill="#ffbc40"/>
          <path id="Path_34161" data-name="Path 34161" d="M645.6,665.687a2.655,2.655,0,0,1-2.655-2.655V643.749a2.655,2.655,0,1,1,5.309,0v19.284a2.655,2.655,0,0,1-2.655,2.655" transform="translate(-458.051 -456.735)" fill="#ffbc40"/>
          <path id="Path_34162" data-name="Path 34162" d="M551.246,704.218a2.646,2.646,0,0,1-1.877-.778l-13.247-13.247a2.655,2.655,0,0,1,3.754-3.754l13.247,13.247a2.655,2.655,0,0,1-1.877,4.532" transform="translate(-381.395 -488.487)" fill="#ffbc40"/>
        </g>
        <g id="Group_47065" data-name="Group 47065" transform="translate(-135.219 257.665) rotate(-45)">
          <path id="Path_34163" data-name="Path 34163" d="M1128.609,1019.4h19.284a2.655,2.655,0,0,1,0,5.309h-19.284a2.655,2.655,0,1,1,0-5.309" transform="translate(-802.162 -726.251)" fill="#ffbc40"/>
          <path id="Path_34164" data-name="Path 34164" d="M1043.5,1104.508a2.655,2.655,0,0,1,2.655,2.654v19.284a2.655,2.655,0,1,1-5.309,0v-19.284a2.655,2.655,0,0,1,2.655-2.654" transform="translate(-741.529 -786.886)" fill="#ffbc40"/>
          <path id="Path_34165" data-name="Path 34165" d="M1105.033,1080.932a2.645,2.645,0,0,1,1.877.778l13.247,13.247a2.654,2.654,0,0,1-3.754,3.754l-13.247-13.247a2.655,2.655,0,0,1,1.877-4.531" transform="translate(-785.367 -770.089)" fill="#ffbc40"/>
        </g>
      </g>
    </g>
  </g>
</svg>
