<svg id="Icon_Settings" data-name="Icon Settings" xmlns="http://www.w3.org/2000/svg" width="20" height="20" viewBox="0 0 20 20">
  <g id="Rectangle_13959" data-name="Rectangle 13959" fill="#333" stroke="#707070" stroke-width="1" opacity="0">
    <rect width="20" height="20" stroke="none"/>
    <rect x="0.5" y="0.5" width="19" height="19" fill="none"/>
  </g>
  <path id="settings_2_" data-name="settings (2)" d="M18.51,12.06a6.686,6.686,0,0,0-.422-.537V8.477a6.686,6.686,0,0,0,.422-.537c.244-.336.473-.686.542-.8a.8.8,0,0,0,.013-.8L17.555,3.663a.761.761,0,0,0-.688-.39c-.13,0-.542.033-.948.08a6.441,6.441,0,0,0-.666.105L12.67,1.935a6.821,6.821,0,0,0-.244-.642c-.163-.384-.345-.762-.406-.879A.762.762,0,0,0,11.346,0H8.324a.762.762,0,0,0-.675.414c-.061.117-.243.5-.406.879A6.786,6.786,0,0,0,7,1.935L4.417,3.458a6.441,6.441,0,0,0-.666-.105c-.407-.048-.818-.076-.948-.08a.76.76,0,0,0-.688.39L.6,6.337a.8.8,0,0,0,.013.8c.069.113.3.463.542.8a6.687,6.687,0,0,0,.422.537v3.047a6.687,6.687,0,0,0-.422.537c-.244.336-.474.686-.542.8a.8.8,0,0,0-.013.8l1.511,2.674a.759.759,0,0,0,.688.39c.13,0,.542-.033.948-.08a6.441,6.441,0,0,0,.666-.105L7,18.065a6.786,6.786,0,0,0,.244.642c.163.384.345.762.406.879A.762.762,0,0,0,8.324,20h3.022a.762.762,0,0,0,.675-.414c.061-.117.243-.5.406-.879a6.786,6.786,0,0,0,.244-.642l2.582-1.523a6.441,6.441,0,0,0,.666.105c.407.048.818.076.948.08a.762.762,0,0,0,.688-.39l1.511-2.674a.8.8,0,0,0-.013-.8C18.984,12.746,18.754,12.4,18.51,12.06ZM16.942,7.442a.785.785,0,0,0-.383.677v3.762a.785.785,0,0,0,.383.677,8.046,8.046,0,0,1,.561.746l-1.034,1.83a7.776,7.776,0,0,1-.912-.124.751.751,0,0,0-.766,0L11.6,16.891a.785.785,0,0,0-.382.678,8.19,8.19,0,0,1-.351.869H8.8a8.19,8.19,0,0,1-.351-.869.785.785,0,0,0-.382-.678L4.878,15.009a.75.75,0,0,0-.765,0,7.775,7.775,0,0,1-.912.124L2.167,13.3a7.929,7.929,0,0,1,.561-.746.785.785,0,0,0,.383-.677V8.119a.785.785,0,0,0-.383-.677A7.929,7.929,0,0,1,2.167,6.7L3.2,4.866a7.775,7.775,0,0,1,.912.124.751.751,0,0,0,.765,0L8.067,3.109a.785.785,0,0,0,.382-.678A8.19,8.19,0,0,1,8.8,1.563h2.068a8.19,8.19,0,0,1,.351.869.785.785,0,0,0,.382.678l3.189,1.881a.75.75,0,0,0,.766,0,7.776,7.776,0,0,1,.912-.124L17.5,6.7A8.046,8.046,0,0,1,16.942,7.442ZM14.612,10a.765.765,0,1,1-1.529,0,3.249,3.249,0,1,0-3.248,3.319.781.781,0,0,1,0,1.563,4.883,4.883,0,0,1,0-9.763A4.836,4.836,0,0,1,14.612,10Zm0,0" transform="translate(0.165)" fill="#333"/>
</svg>
