<svg xmlns="http://www.w3.org/2000/svg" width="20" height="20" viewBox="0 0 20 20">
  <g id="noun-fail-3492743" transform="translate(-95.455 -25.453)">
    <path id="Path_33280" data-name="Path 33280" d="M105.455,25.453a10,10,0,1,0,7.071,2.929,10,10,0,0,0-7.071-2.929Zm-3.546,5.455a1,1,0,0,1,.718.3l2.829,2.828,2.829-2.828a1,1,0,1,1,1.414,1.414l-2.828,2.828,2.828,2.829a1,1,0,1,1-1.414,1.414l-2.829-2.829L102.626,39.7a1,1,0,1,1-1.414-1.414l2.828-2.829-2.828-2.828a1,1,0,0,1,.7-1.717Z" fill="#fc3f3f"/>
  </g>
</svg>
