<svg id="linkedin" xmlns="http://www.w3.org/2000/svg" width="20" height="20" viewBox="0 0 20 20">
  <path id="Path_33219" data-name="Path 33219" d="M0,1.433A1.456,1.456,0,0,1,1.478,0H18.522A1.456,1.456,0,0,1,20,1.433V18.568A1.456,1.456,0,0,1,18.522,20H1.478A1.456,1.456,0,0,1,0,18.568V1.432Z" fill="#069"/>
  <path id="Path_33220" data-name="Path 33220" d="M40.4,56.773v-9H37.406v9H40.4ZM38.9,46.539a1.674,1.674,0,1,0-.02,0H38.9Zm3.152,10.233h2.993V51.745a2.049,2.049,0,0,1,.1-.73,1.638,1.638,0,0,1,1.536-1.095c1.083,0,1.516.826,1.516,2.036v4.816h2.993V51.61c0-2.766-1.476-4.053-3.445-4.053a2.982,2.982,0,0,0-2.717,1.517h.02V47.769H42.056c.039.845,0,9,0,9Z" transform="translate(-34.321 -40.035)" fill="#fff"/>
</svg>
